# xmcd CD database file
#
# Track frame offsets:
#	150
#	19563
#	38730
#	55551
#	73121
#	91486
#	109655
#	124942
#	139097
#	156599
#	173105
#	188362
#	207216
#
# Disc length: 2944 seconds
#
# Revision: 0
# Processed by: cddbd v1.5.2PL0 Copyright (c) Steve Scherf et al.
# Submitted via: CdAid (MTCDDB.DLL V2003.12.21)
#
DISCID=ab0b7e0d
DTITLE=Lucas e Luan - Lucas e Luan
DYEAR=1995
DGENRE=Folk
TTITLE0=Meu tipo de mulher
TTITLE1=Preciso muito mais
TTITLE2=Paixão que mexe comigo
TTITLE3=Mate quem te ama
TTITLE4=Gato escaldado
TTITLE5=Um amigo meu
TTITLE6=Mexe que é bom
TTITLE7=Sua ida (I need you)
TTITLE8=Hoje eu quebro tudo
TTITLE9=Fiz o que pude
TTITLE10=Renascer
TTITLE11=Tempestade
TTITLE12=Amor indeciso (Sonho de louca)
EXTD=ID3G:  80 YEAR: 1995
EXTT0=
EXTT1=
EXTT2=
EXTT3=
EXTT4=
EXTT5=
EXTT6=
EXTT7=
EXTT8=
EXTT9=
EXTT10=
EXTT11=
EXTT12=
PLAYORDER=
